<svg width="200" height="160" viewBox="0 0 200 160" fill="none" xmlns="http://www.w3.org/2000/svg">
<path d="M0 159.465H4.63657V136.417H5.28859L9.63538 159.465H17.532L21.8788 136.417H22.5308V159.465H27.1674V132.709H18.2927L13.9097 156.025H13.2577L8.87469 132.709H0V159.465Z" fill="#ECEDF1"/>
<path d="M33.2832 138.29C34.9495 138.29 36.2173 137.066 36.2173 135.232C36.2173 133.397 34.9495 132.174 33.2832 132.174C31.6169 132.174 30.3491 133.397 30.3491 135.232C30.3491 137.066 31.6169 138.29 33.2832 138.29ZM31.0011 159.465H35.5653V140.506H31.0011V159.465Z" fill="#ECEDF1"/>
<path d="M47.9762 160C53.1199 160 56.054 156.827 56.9958 152.738L52.5766 151.629C52.1781 154.075 50.8379 155.719 48.0849 155.719C45.3319 155.719 43.231 153.77 43.231 150.177V149.795C43.231 146.202 45.3319 144.252 48.0849 144.252C50.8379 144.252 52.1781 146.01 52.4679 148.304L56.8872 147.31C56.1265 143.106 53.1199 139.971 47.9762 139.971C42.7601 139.971 38.6669 143.526 38.6669 149.718V150.253C38.6669 156.445 42.7601 160 47.9762 160Z" fill="#ECEDF1"/>
<path d="M59.6741 159.465H64.2382V148.686C64.2382 146.01 65.9045 144.711 68.2228 144.711H70.4686V140.43H68.2952C66.6289 140.43 65.3249 141.118 64.8178 142.647H64.1658V140.506H59.6741V159.465Z" fill="#ECEDF1"/>
<path d="M80.8613 160C86.2223 160 90.2793 156.407 90.2793 150.291V149.68C90.2793 143.564 86.2223 139.971 80.8613 139.971C75.5002 139.971 71.4432 143.564 71.4432 149.68V150.291C71.4432 156.407 75.5002 160 80.8613 160ZM80.8613 155.719C78.0721 155.719 76.0074 153.731 76.0074 150.177V149.795C76.0074 146.24 78.0359 144.252 80.8613 144.252C83.6867 144.252 85.7152 146.24 85.7152 149.795V150.177C85.7152 153.731 83.6505 155.719 80.8613 155.719Z" fill="#ECEDF1"/>
<path d="M92.5362 159.465H105.721C110.249 159.465 113.401 156.866 113.401 152.394V152.011C113.401 148.189 110.974 146.698 109.38 146.24V145.552C110.938 145.055 113.256 143.564 113.256 139.857V139.474C113.256 135.308 110.213 132.709 105.577 132.709H92.5362V137.143H95.8687V155.031H92.5362V159.465ZM100.65 143.717V137.296H105.069C107.098 137.296 108.474 138.404 108.474 140.315V140.698C108.474 142.609 107.062 143.717 105.069 143.717H100.65ZM100.65 154.878V148.304H105.142C107.243 148.304 108.619 149.412 108.619 151.4V151.782C108.619 153.77 107.207 154.878 105.142 154.878H100.65Z" fill="#ECEDF1"/>
<path d="M116.373 159.465H120.937V132.709H116.373V159.465Z" fill="#ECEDF1"/>
<path d="M133.457 160C138.818 160 142.875 156.407 142.875 150.291V149.68C142.875 143.564 138.818 139.971 133.457 139.971C128.096 139.971 124.039 143.564 124.039 149.68V150.291C124.039 156.407 128.096 160 133.457 160ZM133.457 155.719C130.668 155.719 128.603 153.731 128.603 150.177V149.795C128.603 146.24 130.632 144.252 133.457 144.252C136.283 144.252 138.311 146.24 138.311 149.795V150.177C138.311 153.731 136.246 155.719 133.457 155.719Z" fill="#ECEDF1"/>
<path d="M154.441 160C159.585 160 162.519 156.827 163.461 152.738L159.042 151.629C158.643 154.075 157.303 155.719 154.55 155.719C151.797 155.719 149.696 153.77 149.696 150.177V149.795C149.696 146.202 151.797 144.252 154.55 144.252C157.303 144.252 158.643 146.01 158.933 148.304L163.352 147.31C162.592 143.106 159.585 139.971 154.441 139.971C149.225 139.971 145.132 143.526 145.132 149.718V150.253C145.132 156.445 149.225 160 154.441 160Z" fill="#ECEDF1"/>
<path d="M166.139 159.465H170.703V151.935H171.355L177.658 159.465H183.526L174.941 149.68L183.237 140.506H177.296L171.355 147.501H170.703V132.709H166.139V159.465Z" fill="#ECEDF1"/>
<path d="M192.466 160C197.03 160 200 157.745 200 153.77C200 149.795 196.812 148.571 192.755 147.807L191.741 147.616C190.075 147.31 189.061 146.813 189.061 145.59C189.061 144.482 190.002 143.794 191.741 143.794C193.48 143.794 194.711 144.52 195.11 146.469L199.348 145.093C198.515 142.035 195.762 139.971 191.741 139.971C187.467 139.971 184.641 142.074 184.641 145.819C184.641 149.565 187.757 151.056 191.524 151.782L192.538 151.973C194.675 152.394 195.581 152.929 195.581 154.114C195.581 155.299 194.567 156.178 192.466 156.178C190.365 156.178 188.662 155.337 188.191 152.661L183.989 153.808C184.605 157.783 187.757 160 192.466 160Z" fill="#ECEDF1"/>
<g filter="url(#filter0_d_1057_3165)">
<path d="M132.045 100.674C127.269 107.501 118.858 114.377 108.02 115.543C100.701 116.33 94.0528 115.115 88.122 112.619C82.9491 110.442 78.4203 106.316 75.42 102.463C72.4197 98.6093 69.0796 91.4316 68.3486 87.3315C67.6176 83.2314 67.6797 77.4947 68.741 72.1254C69.59 67.8299 71.7251 61.2202 72.6774 58.8172C71.6659 56.4146 69.7734 51.9752 69.0513 49.7736C68.1486 47.0215 67.3559 44.4476 66.6021 40.7298C65.8137 36.8411 65.2559 33.6568 65.4643 29.6456C65.6727 25.6343 67.2342 20.9076 68.6204 18.0992C70.0065 15.2908 72.5873 12.0375 74.8738 10.1451C77.1602 8.25258 82.5532 5.20307 85.8656 4.84661C89.178 4.49016 89.3938 5.98661 89.9028 8.52775C90.9051 7.61789 93.363 5.62274 95.1763 4.92109C97.443 4.04402 101.12 3.01505 104.575 2.83326C108.029 2.65148 108.803 4.15093 108.98 5.27155C109.157 6.39216 108.007 9.68169 107.111 12.4373C106.216 15.1929 106.476 18.3306 106.343 20.0544C106.21 21.7782 106.295 26.1204 106.525 28.3624C106.755 30.6044 106.96 36.9291 106.287 43.3485C114.678 42.8988 123.571 48.5968 128.076 53.5521C132.581 58.5075 138.253 68.6973 138.57 78.4452C138.818 86.1058 137.312 93.1456 132.045 100.674Z" fill="#787E9C"/>
</g>
<path d="M102.017 8.06279C98.127 8.61574 85.3511 13.4035 86.6252 25.8151C87.4262 33.618 89.6798 43.4832 92.2421 49.907C88.7078 50.6874 85.7465 51.5901 83.2663 52.6053C84.2724 47.0461 84.7314 41.4616 84.0724 35.0424C81.7075 12.0046 88.2268 9.66983 84.9064 10.0271C81.5862 10.3844 67.754 19.6651 70.3931 36.5145C71.5625 43.9781 75.3117 54.376 77.8518 59.1672C74.2194 67.4942 71.6613 75.1103 72.4828 83.1136C74.2558 100.385 89.4223 112.924 106.336 111.104C123.251 109.284 135.539 93.7897 133.766 76.5188C133.188 70.8793 126.667 45.6195 100.903 48.392C102.014 41.5788 102.18 31.8009 101.402 24.2234C100.087 11.4115 106.363 7.59356 102.283 8.03258C102.156 8.0463 102.14 8.04331 102.015 8.06144L102.017 8.06279Z" fill="white"/>
<path fill-rule="evenodd" clip-rule="evenodd" d="M102.074 7.00425C102.098 7.00212 102.117 7.0005 102.153 6.99663C102.667 6.94128 103.258 6.91581 103.755 7.11228C104.043 7.22628 104.334 7.42772 104.54 7.75694C104.738 8.07447 104.791 8.40767 104.795 8.67334C104.8 9.14922 104.642 9.6605 104.502 10.0732C104.417 10.3226 104.306 10.6249 104.187 10.9472C104.102 11.179 104.013 11.4211 103.927 11.6613C103.074 14.0505 101.887 18.0157 102.519 24.1789C103.25 31.3002 103.16 40.3412 102.235 47.1355C114.688 46.267 122.67 51.93 127.589 58.6062C132.645 65.4694 134.469 73.39 134.774 76.3606C136.608 94.2275 123.916 110.254 106.442 112.134C88.9685 114.014 73.2989 101.041 71.4648 83.1735C70.6294 75.0354 73.1652 67.3475 76.6794 59.2062C74.1049 54.1302 70.5324 44.0742 69.3841 36.7417L69.3841 36.7416C68.0081 27.9521 70.9316 21.1126 74.6227 16.4484C76.4631 14.1228 78.4988 12.3302 80.3019 11.0897C81.2036 10.4693 82.0574 9.97991 82.8108 9.6296C83.545 9.28819 84.2502 9.04753 84.8394 8.98413C85.0586 8.96054 85.2847 8.94236 85.4931 8.94717C85.6816 8.95153 85.9869 8.97486 86.2864 9.13021C86.6616 9.32483 86.917 9.6668 87.0088 10.076C87.0821 10.4022 87.0353 10.7037 86.9986 10.8847C86.9357 11.1953 86.7986 11.596 86.6601 12.0009C86.6383 12.0646 86.6165 12.1284 86.5949 12.1919C86.4208 12.7048 86.2085 13.3478 85.9893 14.165C85.1169 17.4156 84.0862 23.5971 85.2538 34.971C85.846 40.7391 85.5515 45.8433 84.7762 50.8299C86.5544 50.1983 88.5348 49.6186 90.7398 49.0918C88.3451 42.5904 86.3055 33.385 85.5481 26.0068C84.8612 19.3152 87.9879 14.6679 91.7118 11.6842C95.3557 8.76458 99.6487 7.36036 101.786 7.04077C101.806 7.03679 101.826 7.03334 101.846 7.03042C101.927 7.01863 101.982 7.01258 102.036 7.00758C102.051 7.00622 102.063 7.00519 102.074 7.00425ZM102.211 9.31235C102.194 9.31549 102.178 9.31826 102.161 9.32066C100.4 9.57109 96.4406 10.8312 93.1057 13.5033C89.814 16.1408 87.2118 20.0728 87.7961 25.7649C88.5864 33.4633 90.8123 43.1971 93.3188 49.4877C93.4448 49.804 93.4275 50.1611 93.2716 50.4632C93.1157 50.7653 92.837 50.9815 92.5105 51.0536C89.0357 51.8214 86.1483 52.7046 83.7492 53.6876C83.3669 53.8443 82.9316 53.7759 82.6129 53.5091C82.2943 53.2424 82.1429 52.8195 82.2177 52.4053C83.2046 46.941 83.6495 41.4832 83.0058 35.2129C81.8138 23.6008 82.8511 17.1251 83.8095 13.5539C84.0469 12.6692 84.2766 11.9736 84.4573 11.4411C84.2559 11.5112 84.0183 11.6069 83.746 11.7335C83.1228 12.0233 82.3778 12.4469 81.5634 13.0072C79.9344 14.128 78.069 15.7672 76.3797 17.902C73.0112 22.1585 70.3602 28.3536 71.616 36.3756C72.7607 43.6848 76.4536 53.9362 78.9289 58.6107C79.096 58.9262 79.1102 59.3033 78.9674 59.6311C75.3602 67.9136 72.9264 75.2706 73.7128 82.9316C75.4166 99.5295 89.9741 111.582 106.206 109.835C122.438 108.089 134.23 93.1999 132.526 76.6026C132.254 73.9464 130.539 66.4519 125.783 59.9972C121.078 53.6114 113.402 48.2305 101.02 49.563C100.669 49.6008 100.321 49.4688 100.079 49.2061C99.8371 48.9435 99.7291 48.5803 99.787 48.2244C100.874 41.5445 101.039 31.8945 100.271 24.4209C99.5919 17.8011 100.875 13.4706 101.804 10.8691C101.911 10.5693 102.006 10.3126 102.091 10.0826C102.196 9.79598 102.287 9.55087 102.367 9.31559C102.369 9.30932 102.371 9.3031 102.373 9.29692C102.32 9.30247 102.278 9.30609 102.253 9.30827C102.247 9.30885 102.241 9.30933 102.237 9.30972C102.229 9.31041 102.222 9.31111 102.211 9.31235ZM85.4698 11.2597C85.4696 11.2598 85.4654 11.2596 85.4579 11.2585C85.4662 11.259 85.47 11.2595 85.4698 11.2597ZM84.7888 10.3977C84.7894 10.3901 84.7901 10.3861 84.7903 10.3859C84.7904 10.3858 84.7901 10.3895 84.7888 10.3977Z" fill="#2C2C2C"/>
<path fill-rule="evenodd" clip-rule="evenodd" d="M124.335 89.3974C122.439 91.6687 120.1 93.5938 117.432 95.0379L117.432 95.0379C114.763 96.4822 111.766 97.4444 108.555 97.79C105.343 98.1356 102.216 97.8325 99.312 96.9879L99.3119 96.9878C96.4088 96.1433 93.7305 94.7579 91.4143 92.9401L92.467 91.6795C94.62 93.3693 97.1088 94.6563 99.8046 95.4406C102.5 96.2246 105.404 96.5065 108.39 96.1851C111.376 95.8638 114.159 94.9699 116.636 93.6293C119.114 92.2884 121.287 90.4998 123.05 88.3884L124.335 89.3974Z" fill="#2C2C2C"/>
<path fill-rule="evenodd" clip-rule="evenodd" d="M109.645 90.962L110.336 100.936C110.37 101.433 110.089 101.888 109.652 102.041L106.167 103.257C105.649 103.438 105.087 103.135 104.903 102.575L103.108 97.1244L105.001 96.4151L106.463 100.858L108.273 100.227L107.64 91.0991L109.645 90.962Z" fill="#2C2C2C"/>
<path fill-rule="evenodd" clip-rule="evenodd" d="M114.783 96.132L115.103 100.175C115.151 100.787 114.745 101.318 114.194 101.365L110.234 101.701L110.047 99.4792L113.01 99.2282L112.778 96.2899L114.783 96.132Z" fill="#2C2C2C"/>
<path d="M109.083 91.9813L104.775 88.4036L111.345 87.5556L109.083 91.9813Z" fill="#2C2C2C"/>
<path fill-rule="evenodd" clip-rule="evenodd" d="M111.751 87.3894C111.91 87.6236 111.921 87.9272 111.777 88.1742L109.47 92.1455C109.361 92.334 109.174 92.4679 108.957 92.5129C108.741 92.5578 108.516 92.5094 108.341 92.3801L104.081 89.2409C103.833 89.0583 103.725 88.7461 103.807 88.4514C103.889 88.1567 104.145 87.9383 104.454 87.8991L111.021 87.0669C111.309 87.0305 111.591 87.1553 111.751 87.3894ZM106.509 89.1466L108.574 90.6687L109.693 88.7431L106.509 89.1466Z" fill="#2C2C2C"/>
<path d="M100.222 86.0519C101.444 85.4259 101.938 83.9074 101.325 82.6603C100.713 81.4131 99.2259 80.9095 98.004 81.5355C96.7821 82.1615 96.288 83.68 96.9004 84.9272C97.5127 86.1743 98.9997 86.6779 100.222 86.0519Z" fill="#2C2C2C"/>
<path d="M113.02 83.1546C114.323 83.5739 115.713 82.8349 116.125 81.504C116.536 80.1731 115.813 78.7542 114.51 78.3349C113.206 77.9156 111.816 78.6546 111.405 79.9855C110.993 81.3164 111.716 82.7353 113.02 83.1546Z" fill="#2C2C2C"/>
<path d="M71.7791 105.342C72.5459 105.346 73.2993 105.541 73.9701 105.908C74.6673 106.277 75.2428 106.836 75.6284 107.518C76.0132 108.191 76.2173 108.951 76.2213 109.724C76.221 110.491 76.0202 111.244 75.6384 111.911C75.2586 112.599 74.6864 113.165 73.9902 113.54C73.316 113.918 72.5542 114.117 71.7791 114.117C71.0041 114.117 70.2423 113.918 69.5681 113.54C68.8769 113.162 68.3088 112.596 67.9299 111.911C67.545 111.244 67.3408 110.491 67.3369 109.724C67.3409 108.951 67.5451 108.191 67.9299 107.518C68.3175 106.831 68.8966 106.269 69.5982 105.898C70.2667 105.535 71.0165 105.344 71.7791 105.342ZM71.7791 106.067C71.1417 106.071 70.5158 106.236 69.96 106.544C69.3753 106.853 68.8935 107.322 68.5731 107.896C68.2475 108.451 68.076 109.082 68.076 109.724C68.076 110.366 68.2475 110.997 68.5731 111.553C68.892 112.127 69.3696 112.599 69.95 112.914C70.5116 113.228 71.1444 113.395 71.7892 113.401C72.4373 113.396 73.0736 113.229 73.6384 112.914C74.2158 112.598 74.6899 112.126 75.0053 111.553C75.3289 111 75.4988 110.373 75.4977 109.734C75.4927 109.089 75.3196 108.456 74.9952 107.896C74.6752 107.313 74.1895 106.836 73.5982 106.524C73.0405 106.223 72.4148 106.065 71.7791 106.067ZM69.8294 112.169V107.439H71.4776C71.8873 107.419 72.2976 107.462 72.6937 107.568C72.9396 107.651 73.1513 107.812 73.2967 108.025C73.4415 108.229 73.5187 108.472 73.5178 108.72C73.5191 108.888 73.4869 109.054 73.4231 109.209C73.3593 109.365 73.2651 109.506 73.146 109.625C72.8763 109.886 72.518 110.038 72.1409 110.052C72.2933 110.108 72.4333 110.192 72.553 110.301C72.8189 110.588 73.0546 110.901 73.2565 111.235L73.8394 112.169H72.9048L72.4826 111.424C72.2823 111.012 72.0101 110.639 71.6786 110.32C71.4954 110.198 71.2764 110.139 71.0555 110.152H70.6032V112.139L69.8294 112.169ZM70.6032 109.506H71.5379C71.8564 109.537 72.1767 109.467 72.4525 109.307C72.5848 109.2 72.6716 109.047 72.6958 108.88C72.72 108.712 72.6798 108.542 72.5831 108.402C72.4993 108.294 72.3886 108.208 72.2615 108.154C72.0057 108.089 71.7415 108.062 71.4776 108.075H70.6032V109.506Z" fill="#787E9C"/>
<defs>
<filter id="filter0_d_1057_3165" x="63.4204" y="0.818176" width="77.1748" height="116.963" filterUnits="userSpaceOnUse" color-interpolation-filters="sRGB">
<feFlood flood-opacity="0" result="BackgroundImageFix"/>
<feColorMatrix in="SourceAlpha" type="matrix" values="0 0 0 0 0 0 0 0 0 0 0 0 0 0 0 0 0 0 127 0" result="hardAlpha"/>
<feOffset/>
<feGaussianBlur stdDeviation="1"/>
<feColorMatrix type="matrix" values="0 0 0 0 0 0 0 0 0 0 0 0 0 0 0 0 0 0 0.5 0"/>
<feBlend mode="normal" in2="BackgroundImageFix" result="effect1_dropShadow_1057_3165"/>
<feBlend mode="normal" in="SourceGraphic" in2="effect1_dropShadow_1057_3165" result="shape"/>
</filter>
</defs>
</svg>
